<?xml version="1.0" standalone="no"?>
<!DOCTYPE svg PUBLIC "-//W3C//DTD SVG 20010904//EN"
 "http://www.w3.org/TR/2001/REC-SVG-20010904/DTD/svg10.dtd">
<svg version="1.0" xmlns="http://www.w3.org/2000/svg"
 width="2000.000000pt" height="2000.000000pt" viewBox="0 0 2000.000000 2000.000000"
 preserveAspectRatio="xMidYMid meet">

<g transform="translate(0.000000,2000.000000) scale(0.100000,-0.100000)"
fill="#000000" stroke="none">
<path d="M2584 16440 c-142 -32 -236 -85 -350 -197 -126 -124 -185 -236 -209
-393 -2 -19 -9 -59 -14 -89 -7 -36 -7 -75 0 -115 5 -34 14 -90 20 -126 6 -39
29 -103 56 -160 40 -84 58 -107 147 -195 78 -77 117 -108 171 -134 39 -18 84
-40 100 -48 17 -8 66 -17 110 -20 44 -3 85 -9 91 -14 12 -10 8904 -18 9544 -8
416 6 420 6 550 67 118 55 229 150 315 270 39 55 95 190 95 230 0 12 6 33 14
45 12 18 13 47 6 157 -5 74 -13 155 -18 180 -57 254 -241 448 -517 544 l-60
21 -4985 2 c-4810 1 -4988 1 -5066 -17z m9922 -10 c145 -11 209 -29 313 -87
174 -96 278 -217 348 -404 27 -71 28 -82 27 -239 -1 -149 -4 -172 -27 -242
-69 -203 -243 -375 -462 -457 l-70 -26 -4720 -7 c-2596 -4 -4807 -10 -4914
-12 -107 -2 -188 -1 -182 4 12 7 -89 20 -164 20 -113 1 -279 83 -391 195 -92
91 -144 173 -187 295 -28 79 -30 95 -31 235 -1 167 7 197 91 358 102 196 359
361 570 366 42 1 79 4 82 7 10 9 9589 4 9717 -6z m-9766 -1474 c0 -3 -4 -8
-10 -11 -5 -3 -10 -1 -10 4 0 6 5 11 10 11 6 0 10 -2 10 -4z"/>
<path d="M2660 16299 c-163 -24 -321 -137 -418 -299 -57 -95 -75 -170 -75
-305 0 -156 31 -245 127 -370 91 -117 245 -205 396 -226 38 -6 2109 -8 4985
-7 l4920 3 80 32 c107 43 167 83 240 157 71 72 137 192 155 281 17 79 15 181
-4 280 -37 186 -211 375 -407 442 -52 17 -224 18 -4999 19 -2720 1 -4970 -2
-5000 -7z"/>
<path d="M7348 10740 c-144 -31 -271 -107 -391 -235 -193 -205 -247 -519 -135
-790 11 -27 24 -57 29 -65 5 -8 18 -33 30 -55 12 -22 66 -83 121 -136 110
-107 208 -164 334 -196 65 -16 369 -18 5024 -20 4249 -3 4961 -1 5000 11 25 8
64 17 88 20 74 11 197 83 290 171 75 70 182 210 182 237 0 5 10 30 22 56 22
44 23 60 23 257 0 207 0 211 -28 282 -40 101 -98 187 -181 266 -125 120 -211
167 -360 198 -88 18 -231 19 -5026 18 -4760 -1 -4938 -2 -5022 -19z m10015
-140 c125 -24 199 -63 292 -156 81 -80 113 -129 153 -231 24 -62 26 -80 26
-213 0 -122 -4 -154 -21 -202 -41 -109 -148 -246 -240 -307 -70 -47 -190 -89
-289 -101 -109 -14 -9514 -22 -9719 -8 -238 16 -347 59 -475 188 -114 114
-157 194 -172 322 -13 108 -14 117 -1 223 15 123 63 215 167 318 112 112 185
150 333 174 107 17 332 18 4980 15 4719 -3 4871 -4 4966 -22z"/>
<path d="M2669 5070 c-9 -5 -51 -16 -95 -25 -110 -22 -204 -71 -302 -157 -197
-174 -272 -357 -259 -628 10 -204 77 -355 221 -494 116 -113 236 -179 356
-197 192 -28 498 -29 5165 -26 5407 3 4875 -5 5062 82 85 40 107 56 192 143
121 122 168 204 207 362 17 68 24 296 10 318 -4 7 -10 28 -12 47 -7 56 -52
165 -95 231 -44 68 -148 173 -222 223 -64 44 -114 65 -232 98 l-100 28 -4940
2 c-3034 2 -4946 -1 -4956 -7z m9936 -40 c130 -17 278 -95 389 -205 56 -56
156 -200 156 -225 0 -9 5 -21 10 -26 18 -18 40 -147 40 -239 -1 -198 -37 -316
-140 -455 -108 -146 -231 -233 -392 -278 -59 -16 -347 -17 -5038 -17 -4851 0
-4977 0 -5050 19 -107 27 -186 67 -262 133 -90 78 -163 171 -209 268 -52 111
-62 159 -62 315 0 121 3 143 27 214 54 158 142 279 269 369 107 76 200 115
307 127 97 11 9871 11 9955 0z"/>
<path d="M2672 4909 c-138 -18 -234 -70 -344 -187 -113 -120 -161 -242 -161
-412 -1 -148 39 -266 125 -375 74 -93 158 -152 288 -202 l75 -28 4965 0 c4827
0 4967 1 5020 19 271 92 443 318 443 581 -1 98 -23 195 -65 283 -60 123 -229
269 -361 310 -48 15 -454 17 -4987 18 -2714 1 -4964 -2 -4998 -7z"/>
</g>
</svg>
